<svg xmlns="http://www.w3.org/2000/svg" viewBox="0 0 128 128" role="img" aria-label="Build monitor">
  <defs>
    <radialGradient id="wash-blue" cx="50%" cy="40%" r="60%">
      <stop offset="0%" stop-color="#6aa8ff" stop-opacity="0.55"/>
      <stop offset="100%" stop-color="#6aa8ff" stop-opacity="0"/>
    </radialGradient>
    <radialGradient id="wash-green" cx="50%" cy="40%" r="60%">
      <stop offset="0%" stop-color="#3dd68c" stop-opacity="0.6"/>
      <stop offset="100%" stop-color="#3dd68c" stop-opacity="0"/>
    </radialGradient>
    <radialGradient id="wash-yellow" cx="50%" cy="40%" r="60%">
      <stop offset="0%" stop-color="#efc15a" stop-opacity="0.55"/>
      <stop offset="100%" stop-color="#efc15a" stop-opacity="0"/>
    </radialGradient>
    <radialGradient id="wash-red" cx="50%" cy="40%" r="60%">
      <stop offset="0%" stop-color="#ff6b6b" stop-opacity="0.55"/>
      <stop offset="100%" stop-color="#ff6b6b" stop-opacity="0"/>
    </radialGradient>
    <radialGradient id="wash-purple" cx="50%" cy="40%" r="60%">
      <stop offset="0%" stop-color="#c084fc" stop-opacity="0.55"/>
      <stop offset="100%" stop-color="#c084fc" stop-opacity="0"/>
    </radialGradient>
  </defs>
  <rect width="128" height="128" rx="28" fill="#0b0e13"/>
  <circle cx="64" cy="64" r="44" fill="none" stroke="#1c2430" stroke-width="7"/>
  <circle cx="64" cy="64" r="44" fill="none" stroke="#3dd68c" stroke-width="7"
          stroke-linecap="round" stroke-dasharray="69 208" transform="rotate(-90 64 64)"/>
  <!-- glow washes -->
  <circle cx="64" cy="20" r="18" fill="url(#wash-blue)"/>
  <circle cx="104" cy="48" r="18" fill="url(#wash-green)"/>
  <circle cx="90" cy="98" r="18" fill="url(#wash-yellow)"/>
  <circle cx="38" cy="98" r="18" fill="url(#wash-red)"/>
  <circle cx="24" cy="48" r="18" fill="url(#wash-purple)"/>
  <!-- bulbs -->
  <circle cx="64" cy="20" r="8.5" fill="#6aa8ff"/>
  <circle cx="62.2" cy="18" r="2.8" fill="#e8f1ff" opacity="0.9"/>
  <circle cx="104" cy="48" r="8.5" fill="#3dd68c"/>
  <circle cx="102.2" cy="46" r="2.8" fill="#e6fff2" opacity="0.9"/>
  <circle cx="90" cy="98" r="8.5" fill="#efc15a"/>
  <circle cx="88.2" cy="96" r="2.8" fill="#fff6d6" opacity="0.9"/>
  <circle cx="38" cy="98" r="8.5" fill="#ff6b6b"/>
  <circle cx="36.2" cy="96" r="2.8" fill="#ffe0e0" opacity="0.9"/>
  <circle cx="24" cy="48" r="8.5" fill="#c084fc"/>
  <circle cx="22.2" cy="46" r="2.8" fill="#f5e8ff" opacity="0.9"/>
</svg>
